<?xml version="1.0" encoding="utf-8"?><!-- Uploaded to: SVG Repo, www.svgrepo.com, Generator: SVG Repo Mixer Tools -->
<svg width="800px" height="800px" viewBox="-20 0 190 190" fill="none" xmlns="http://www.w3.org/2000/svg">
<path fill-rule="evenodd" clip-rule="evenodd" d="M92.725 107.336L98.622 128.523L124.734 131.144C120.657 138.621 109.887 144.167 92.81 141.989C77.024 139.976 75.36 147.886 64.669 147.886C31.633 147.886 25.265 121.162 25.265 121.162L48.303 123.474L47.593 113.611C47.593 113.611 58.983 99.8691 61.687 75.8291C73.619 55.7251 97.903 59.2521 106.41 74.5771L92.454 74.9141C93.436 78.5241 89.467 81.8441 86.339 82.0621L90.17 93.0171L95.427 96.0381L84.127 104.39L85.11 107.583L92.725 107.336ZM67.027 92.4861L65.553 105.259L77.72 107.371L78.702 104.178L67.027 92.4861ZM60.216 120.873L61.275 123.108C75.458 123.108 82.881 119.968 82.881 119.968L91.439 123.697L92.406 122.221C86.693 111.924 71.258 112.566 60.216 120.873Z" fill="#000000"/>
</svg>