<?xml version="1.0" encoding="utf-8"?><!-- Uploaded to: SVG Repo, www.svgrepo.com, Generator: SVG Repo Mixer Tools -->
<svg width="800px" height="800px" viewBox="0 0 16 16" xmlns="http://www.w3.org/2000/svg">
  <path fill="#000000" fill-rule="evenodd" d="M5.21302,4.59028 C5.69139,4.22484 6,3.64846 6,3 C6,1.89543 5.10457,1 4,1 C2.89543,1 2,1.89543 2,3 C2,3.74028 2.4022,4.38663 3,4.73244 L3,11.2676 C2.4022,11.6134 2,12.2597 2,13 C2,14.1046 2.89543,15 4,15 C5.10457,15 6,14.1046 6,13 C6,12.2597 5.5978,11.6134 5,11.2676 L5,8.29165 C6.31028,9.77618 8.16291,10.7707 10.2478,10.9651 C10.5884,11.5821 11.2454,12 12,12 C13.1046,12 14,11.1046 14,10 C14,8.89543 13.1046,8 12,8 C11.2769,8 10.6434,8.38374 10.2921,8.95868 C7.84574,8.67116 5.84955,6.91188 5.21302,4.59028 Z"/>
</svg>