<?xml version="1.0" encoding="iso-8859-1"?>
<!-- Uploaded to: SVG Repo, www.svgrepo.com, Generator: SVG Repo Mixer Tools -->
<svg fill="#000000" version="1.1" id="Layer_1" xmlns="http://www.w3.org/2000/svg" xmlns:xlink="http://www.w3.org/1999/xlink" 
	 viewBox="0 0 491.52 491.52" xml:space="preserve">
<g>
	<g>
		<path d="M471.04,358.4V51.2H20.48v307.2H0v44.06l25.24,37.86h441.04l25.24-37.86V358.4H471.04z M40.96,71.68h409.6V358.4H40.96
			V71.68z M471.04,396.26l-15.72,23.58H36.2l-15.72-23.58v-17.38h450.56V396.26z"/>
	</g>
</g>
<g>
	<g>
		<rect x="235.52" y="389.12" width="20.48" height="20.48"/>
	</g>
</g>
<g>
	<g>
		<rect x="194.56" y="389.12" width="20.48" height="20.48"/>
	</g>
</g>
<g>
	<g>
		<rect x="276.48" y="389.12" width="20.48" height="20.48"/>
	</g>
</g>
<g>
	<g>
		<polygon points="102.4,184.32 102.4,112.64 81.92,112.64 81.92,122.88 71.68,122.88 71.68,143.36 81.92,143.36 81.92,184.32 
			71.68,184.32 71.68,204.8 112.64,204.8 112.64,184.32 		"/>
	</g>
</g>
<g>
	<g>
		<polygon points="256,184.32 256,112.64 235.52,112.64 235.52,122.88 225.28,122.88 225.28,143.36 235.52,143.36 235.52,184.32 
			225.28,184.32 225.28,204.8 266.24,204.8 266.24,184.32 		"/>
	</g>
</g>
<g>
	<g>
		<polygon points="327.68,184.32 327.68,112.64 307.2,112.64 307.2,122.88 296.96,122.88 296.96,143.36 307.2,143.36 307.2,184.32 
			296.96,184.32 296.96,204.8 337.92,204.8 337.92,184.32 		"/>
	</g>
</g>
<g>
	<g>
		<path d="M163.84,112.64c-16.94,0-30.72,13.78-30.72,30.72v30.72c0,16.94,13.78,30.72,30.72,30.72s30.72-13.78,30.72-30.72v-30.72
			C194.56,126.42,180.78,112.64,163.84,112.64z M174.08,174.08c0,5.645-4.595,10.24-10.24,10.24c-5.645,0-10.24-4.595-10.24-10.24
			v-30.72c0-5.645,4.595-10.24,10.24-10.24c5.645,0,10.24,4.595,10.24,10.24V174.08z"/>
	</g>
</g>
<g>
	<g>
		<path d="M389.12,112.64c-16.94,0-30.72,13.78-30.72,30.72v30.72c0,16.94,13.78,30.72,30.72,30.72s30.72-13.78,30.72-30.72v-30.72
			C419.84,126.42,406.06,112.64,389.12,112.64z M399.36,174.08c0,5.645-4.595,10.24-10.24,10.24c-5.645,0-10.24-4.595-10.24-10.24
			v-30.72c0-5.645,4.595-10.24,10.24-10.24c5.645,0,10.24,4.595,10.24,10.24V174.08z"/>
	</g>
</g>
<g>
	<g>
		<rect x="81.92" y="235.52" width="20.48" height="71.68"/>
	</g>
</g>
<g>
	<g>
		<rect x="81.92" y="317.44" width="20.48" height="20.48"/>
	</g>
</g>
<g>
	<g>
		<rect x="184.32" y="266.24" width="20.48" height="71.68"/>
	</g>
</g>
<g>
	<g>
		<rect x="184.32" y="235.52" width="20.48" height="20.48"/>
	</g>
</g>
<g>
	<g>
		<rect x="337.92" y="235.52" width="20.48" height="71.68"/>
	</g>
</g>
<g>
	<g>
		<rect x="337.92" y="317.44" width="20.48" height="20.48"/>
	</g>
</g>
<g>
	<g>
		<rect x="389.12" y="266.24" width="20.48" height="71.68"/>
	</g>
</g>
<g>
	<g>
		<rect x="389.12" y="235.52" width="20.48" height="20.48"/>
	</g>
</g>
<g>
	<g>
		<rect x="133.12" y="317.44" width="20.48" height="20.48"/>
	</g>
</g>
<g>
	<g>
		<rect x="133.12" y="235.52" width="20.48" height="40.96"/>
	</g>
</g>
<g>
	<g>
		<rect x="133.12" y="286.72" width="20.48" height="20.48"/>
	</g>
</g>
<g>
	<g>
		<rect x="286.72" y="317.44" width="20.48" height="20.48"/>
	</g>
</g>
<g>
	<g>
		<rect x="286.72" y="235.52" width="20.48" height="40.96"/>
	</g>
</g>
<g>
	<g>
		<rect x="286.72" y="286.72" width="20.48" height="20.48"/>
	</g>
</g>
<g>
	<g>
		<rect x="235.52" y="235.52" width="20.48" height="20.48"/>
	</g>
</g>
<g>
	<g>
		<rect x="235.52" y="296.96" width="20.48" height="40.96"/>
	</g>
</g>
<g>
	<g>
		<rect x="235.52" y="266.24" width="20.48" height="20.48"/>
	</g>
</g>
</svg>