<?xml version="1.0" encoding="iso-8859-1"?>
<!-- Uploaded to: SVG Repo, www.svgrepo.com, Generator: SVG Repo Mixer Tools -->
<!DOCTYPE svg PUBLIC "-//W3C//DTD SVG 1.1//EN" "http://www.w3.org/Graphics/SVG/1.1/DTD/svg11.dtd">
<svg height="800px" width="800px" version="1.1" id="Capa_1" xmlns="http://www.w3.org/2000/svg" xmlns:xlink="http://www.w3.org/1999/xlink" 
	 viewBox="0 0 393.535 393.535" xml:space="preserve">
<g>
	<path style="fill:#020202;" d="M380.973,316.791l-48.656-48.654c5.891-15.474,8.131-32.307,6.361-48.939
		c-2.539-23.875-13.283-46.37-30.252-63.339c-8.418-8.417-18.018-15.228-28.426-20.292V77.111c0-3.934-1.56-7.706-4.344-10.484
		l-58.875-58.88c-2.785-2.778-6.551-4.339-10.484-4.339H29.111C13.059,3.408,0,16.468,0,32.521v312.095
		c0,16.053,13.059,29.113,29.111,29.113h221.777c16.053,0,29.111-13.06,29.111-29.113v-7.29l40.219,40.219
		c8.115,8.114,18.902,12.582,30.377,12.582s22.262-4.469,30.377-12.582C397.723,360.794,397.723,333.541,380.973,316.791z
		 M248.387,341.315H31.613V35.822h154.088v43.577c0,10.554,8.555,19.106,19.105,19.106h43.58v27.496
		c-4.775-0.652-9.625-0.992-14.531-0.992c-28.191,0-54.676,10.956-74.568,30.85c-19.895,19.894-30.85,46.376-30.85,74.569
		c0,28.193,10.955,54.676,30.85,74.569c19.893,19.894,46.373,30.85,74.566,30.85c4.887,0,9.74-0.336,14.533-0.997V341.315z
		 M364.188,359.534c-7.014,7.014-18.385,7.014-25.398,0l-61.277-61.278c-31.064,19.492-72.648,15.738-99.654-11.269
		c-31.371-31.37-31.371-82.413,0-113.783c31.369-31.37,82.412-31.37,113.783,0c27.006,27.006,30.76,68.591,11.268,99.654
		l61.279,61.278C371.201,341.149,371.201,352.52,364.188,359.534z"/>
	<path style="fill:#020202;" d="M202.914,198.261c-17.554,17.554-17.554,46.115,0,63.669c17.554,17.553,46.114,17.553,63.67,0
		c17.552-17.554,17.552-46.115,0-63.669C249.028,180.707,220.468,180.707,202.914,198.261z"/>
</g>
</svg>